<svg id="ewG5NmiTsu31" xmlns="http://www.w3.org/2000/svg" xmlns:xlink="http://www.w3.org/1999/xlink" viewBox="0 0 512 512" shape-rendering="geometricPrecision" text-rendering="geometricPrecision"><g><g><g><path d="M495.9,467.1l-220.2-250l46.8-40.9c4.1-3.6,12.4-15.3,1.9-28.9L259.6,73.8C283.4,60.5,331.1,42.3,396.8,58c10.9,2.6,22-4.1,24.6-15.1s-4.2-22-15.1-24.6c-113.4-27-184.2,30.6-190.5,36-.1.1-.2.2-.3.3l-.1.1L91,163.3c-4.1,3.6-6.6,8.6-6.9,14.1-.4,5.4,1.5,10.7,5,14.8l26.5,30.1c0,0-41.8,36.7-42.1,37.2L46.8,229c-7.4-8.4-20.4-9.3-28.8-1.8-8.5,7.5-9.3,20.4-1.8,28.8l80.1,91c11.8,11.9,24.7,5.5,28.8,1.8c7-6.3,11-18.1,1.8-28.8l-26.6-30.1c.4-.3,42.3-36.9,42.3-36.9l26.6,30.2c11.1,12.1,24.7,6.1,28.8,1.9l46.9-41L465.2,494.2c11.3,12.4,24.9,5.2,28.8,1.8c8.6-7.5,9.4-20.4,1.9-28.9ZM186.5,240.9l-53.1-60.3l93.7-82l53.1,60.3-93.7,82Z" fill="#a0e9f9"/></g></g></g></svg>
