<svg id="ebRYGBLHxKz1" xmlns="http://www.w3.org/2000/svg" xmlns:xlink="http://www.w3.org/1999/xlink" viewBox="0 0 56 56" shape-rendering="geometricPrecision" text-rendering="geometricPrecision"><path d="M13.5039,50.957h12.8437c-1.2421-1.0547-2.2968-2.3203-3.0703-3.7734h-9.5625c-2.414,0-3.7031-1.2422-3.7031-3.586v-35.4609c0-2.3203,1.2656-3.6562,3.7031-3.6562h24.4922c2.3438,0,3.6797,1.3125,3.6797,3.6562v20.4375c1.4531.7734,2.7188,1.8047,3.7735,3.0469v-23.5547c0-4.8985-2.4141-7.3594-7.2657-7.3594h-24.8906c-4.8281,0-7.2656,2.4844-7.2656,7.3594v35.5547c0,4.8984,2.4375,7.3359,7.2656,7.3359Zm3.5859-36.914h17.7657c.8203,0,1.4531-.6563,1.4531-1.4766c0-.7969-.6328-1.4063-1.4531-1.4063h-17.7657c-.8671,0-1.4765.6094-1.4765,1.4063c0,.8203.6094,1.4766,1.4765,1.4766Zm0,8.1796h17.7657c.8203,0,1.4531-.6562,1.4531-1.4765c0-.7969-.6328-1.4063-1.4531-1.4063h-17.7657c-.8671,0-1.4765.6094-1.4765,1.4063c0,.8203.6094,1.4765,1.4765,1.4765ZM35.1367,50.957c2.1094,0,4.1016-.6094,5.7422-1.7109l5.2735,5.2969c.5624.539,1.0781.75,1.7109.75c1.0781,0,1.8984-.8438,1.8984-2.0391c0-.5156-.2577-1.0313-.6561-1.4297l-5.3439-5.3437c1.1953-1.711,1.8985-3.7969,1.8985-6.0469c0-5.836-4.711-10.5469-10.5235-10.5469s-10.5703,4.7578-10.5703,10.5469c0,5.8125,4.7578,10.5234,10.5703,10.5234Zm0-3.3516c-3.9843,0-7.2187-3.2109-7.2187-7.1718c0-3.9141,3.2344-7.1719,7.2187-7.1719c3.9141,0,7.1484,3.2578,7.1484,7.1719c0,3.9609-3.2109,7.1718-7.1484,7.1718Z" fill="#a0e9f9"/></svg>
