<svg id="图层_1" data-name="图层 1" xmlns="http://www.w3.org/2000/svg" viewBox="0 0 675.46 675.46"><defs><style>.cls-1{fill:#fff;}</style></defs><g id="turf-size"><path class="cls-1" d="M613.18,242.82a16,16,0,0,1-16-16v-24h-24a16,16,0,0,1,0-32h40a16,16,0,0,1,16,16v40A16,16,0,0,1,613.18,242.82Z" transform="translate(-62.27 -62.27)"/><path class="cls-1" d="M503.9,202.82H434.63a16,16,0,0,1,0-32H503.9a16,16,0,0,1,0,32Z" transform="translate(-62.27 -62.27)"/><path class="cls-1" d="M365.36,202.82H296.09a16,16,0,0,1,0-32h69.27a16,16,0,0,1,0,32Z" transform="translate(-62.27 -62.27)"/><path class="cls-1" d="M186.82,242.82a16,16,0,0,1-16-16v-40a16,16,0,0,1,16-16h40a16,16,0,0,1,0,32h-24v24A16,16,0,0,1,186.82,242.82Z" transform="translate(-62.27 -62.27)"/><path class="cls-1" d="M186.82,519.9a16,16,0,0,1-16-16V434.63a16,16,0,0,1,32,0V503.9A16,16,0,0,1,186.82,519.9Z" transform="translate(-62.27 -62.27)"/><path class="cls-1" d="M186.82,381.36a16,16,0,0,1-16-16V296.09a16,16,0,0,1,32,0v69.27A16,16,0,0,1,186.82,381.36Z" transform="translate(-62.27 -62.27)"/><path class="cls-1" d="M226.82,629.18h-40a16,16,0,0,1-16-16v-40a16,16,0,0,1,32,0v24h24a16,16,0,1,1,0,32Z" transform="translate(-62.27 -62.27)"/><path class="cls-1" d="M503.9,629.18H434.63a16,16,0,0,1,0-32H503.9a16,16,0,0,1,0,32Z" transform="translate(-62.27 -62.27)"/><path class="cls-1" d="M365.36,629.18H296.09a16,16,0,0,1,0-32h69.27a16,16,0,0,1,0,32Z" transform="translate(-62.27 -62.27)"/><path class="cls-1" d="M613.18,629.18h-40a16,16,0,0,1,0-32h24v-24a16,16,0,0,1,32,0v40A16,16,0,0,1,613.18,629.18Z" transform="translate(-62.27 -62.27)"/><path class="cls-1" d="M613.18,519.9a16,16,0,0,1-16-16V434.63a16,16,0,0,1,32,0V503.9A16,16,0,0,1,613.18,519.9Z" transform="translate(-62.27 -62.27)"/><path class="cls-1" d="M613.18,381.36a16,16,0,0,1-16-16V296.09a16,16,0,0,1,32,0v69.27A16,16,0,0,1,613.18,381.36Z" transform="translate(-62.27 -62.27)"/><path class="cls-1" d="M721.73,737.73H78.27a16,16,0,0,1-16-16V78.27a16,16,0,0,1,16-16H721.73a16,16,0,0,1,16,16V721.73A16,16,0,0,1,721.73,737.73Zm-627.46-32H705.73V94.27H94.27Z" transform="translate(-62.27 -62.27)"/></g></svg>