<svg id="图层_1" data-name="图层 1" xmlns="http://www.w3.org/2000/svg" viewBox="0 0 733.33 600"><defs><style>.cls-1{fill:#fff;}</style></defs><path class="cls-1" d="M33.33,266.67V133.33A33.34,33.34,0,0,1,66.67,100h200a33.34,33.34,0,0,1,0,66.67H100v100a33.34,33.34,0,0,1-66.67,0ZM733.33,100h-200a33.34,33.34,0,0,0,0,66.67H700v100a33.34,33.34,0,0,0,66.67,0V133.33A33.34,33.34,0,0,0,733.33,100ZM66.67,700h200a33.34,33.34,0,0,0,0-66.67H100v-100a33.34,33.34,0,0,0-66.67,0V666.67A33.34,33.34,0,0,0,66.67,700ZM733.33,500A33.33,33.33,0,0,0,700,533.33v100H533.33a33.34,33.34,0,0,0,0,66.67h200a33.34,33.34,0,0,0,33.34-33.33V533.33A33.34,33.34,0,0,0,733.33,500ZM600,566.67H200a33.34,33.34,0,0,1-33.33-33.34V266.67A33.34,33.34,0,0,1,200,233.33H600a33.34,33.34,0,0,1,33.33,33.34V533.33A33.34,33.34,0,0,1,600,566.67ZM566.67,300H233.33V500H566.67Z" transform="translate(-33.33 -100)"/></svg>