<svg id="图层_1" data-name="图层 1" xmlns="http://www.w3.org/2000/svg" viewBox="0 0 98.03 83.91"><defs><style>.cls-1{fill:#d8d8db;}</style></defs><path class="cls-1" d="M22.17,22.05A7.16,7.16,0,0,0,15,29.2v57a7.18,7.18,0,0,0,7.19,7.19h83.69A7.16,7.16,0,0,0,113,86.2v-57a7.13,7.13,0,0,0-7.16-7.15Zm3,8.22h77.75V85.2H25.14Zm27.53,4.9-1.09,2.35,0,.5.34,1.65-2.19.88-.87-1.38-.41-.37L46,38l-.85.82L46,41.2l.37.38,1.41.9-.91,2.19-1.62-.34h-.54l-2.34,1.12v1.19l2.34,1.13h.54l1.62-.35.91,2.16-1.41.94-.37.37-.85,2.44.85.84,2.4-.87.41-.38.87-1.37,2.19.87-.34,1.66,0,.5,1.09,2.34h1.19L55,54.58l0-.5-.34-1.66,2.19-.87.87,1.37.41.38,2.41.87.84-.84-.84-2.44-.35-.37-1.4-.94.9-2.16,1.6.35h.56l2.31-1.13V45.45l-2.31-1.12h-.56l-1.6.34-.9-2.19,1.4-.9.35-.38.84-2.43L60.52,38l-2.41.85-.41.37-.87,1.38-2.19-.88L55,38l0-.5-1.09-2.35Zm.6,7.31a3.57,3.57,0,1,1-3.57,3.57A3.58,3.58,0,0,1,53.27,42.48Zm12.25,6.94L64,49.89,63.64,53l.22.82.84,1.62L62.27,57.2,61,55.86l-.71-.41-3-.62-.9,1.28L57.8,58.8l.65.53,1.66.81L59.2,63l-1.84-.32-.81.07-2.82,1.28v1.59l2.82,1.28.81.1,1.84-.35.91,2.88-1.66.81-.65.53-1.47,2.72.9,1.25,3-.59.71-.44,1.29-1.35,2.43,1.79-.84,1.65-.22.81L64,79.8l1.54.5L67.61,78l.28-.79.28-1.81h3l.25,1.81.32.79,2.09,2.28,1.53-.5.34-3.07-.18-.81-.88-1.65,2.44-1.79,1.28,1.35.72.44,3,.59.94-1.25-1.5-2.72-.66-.53-1.65-.81.93-2.88,1.85.35.81-.1,2.78-1.28V64.05l-2.78-1.28-.81-.07L80.2,63l-.93-2.88,1.65-.81.66-.53,1.5-2.69-.94-1.28-3,.62-.72.41L77.11,57.2l-2.44-1.78.88-1.62.18-.82-.34-3.09-1.53-.47L71.77,51.7l-.32.75L71.2,54.3h-3l-.28-1.85-.28-.75Zm4.15,9.5a5.94,5.94,0,1,1-5.94,5.94A6,6,0,0,1,69.67,58.92ZM39.73,98.33A7.59,7.59,0,0,0,32.11,106H96a7.62,7.62,0,0,0-7.65-7.62Z" transform="translate(-14.98 -22.05)"/></svg>