<?xml version="1.0" encoding="utf-8"?>
<svg xmlns="http://www.w3.org/2000/svg" style="margin: auto; display: block; shape-rendering: auto;" width="280" height="250" preserveAspectRatio="xMidYMid">
<style type="text/css">
  text {
    text-anchor: middle; font-size: 80px; opacity: 0;
  }
</style>
<g style="transform-origin:140px 125px;transform:scale(1)">
<g transform="translate(140,125)">
  <g transform="translate(0,0)"><g class="path" style="transform: scale(0.91); transform-origin: -44.84px -6.06479px; animation: 2.22222s linear -1.1s infinite normal forwards running breath-5c40a81f-2b15-4c0b-816b-71f170032ffb;"><path d="M6.40-53.60L17.76-55.60L16.88-29.52L37.28-55.44L45.44-50L27.04-28.64L46.56-5.52L36.32 0.88L16.80-26.72L16.64-20.80L17.60 0L6.40 0L7.36-19.44L6.40-53.60" fill="#a0e9f9" stroke="none" stroke-width="none" transform="translate(-71.32001399993896,21.29520179748535)" style="fill: rgb(160, 233, 249);"></path></g><g class="path" style="transform: scale(0.91); transform-origin: -9.16002px 0.935202px; animation: 2.22222s linear -0.733333s infinite normal forwards running breath-5c40a81f-2b15-4c0b-816b-71f170032ffb;"><path d="M50-38.64L50-38.64L59.68-40.72L59.68-40.72Q60.40-34.56 60.64-29.04L60.64-29.04L60.64-29.04Q67.92-40.32 74.32-40.32L74.32-40.32L73.44-27.84L73.44-27.84Q68.80-27.84 66.12-27L66.12-27L66.12-27Q63.44-26.16 60.64-23.68L60.64-23.68L60.64-20.80L61.52-2L50.80 0L51.76-19.44L51.76-19.44Q51.44-30.16 50-38.64" fill="#a0e9f9" stroke="none" stroke-width="none" transform="translate(-71.32001399993896,21.29520179748535)" style="fill: rgb(43, 46, 59);"></path></g><g class="path" style="transform: scale(0.91); transform-origin: 29.88px -6.06479px; animation: 2.22222s linear -0.366667s infinite normal forwards running breath-5c40a81f-2b15-4c0b-816b-71f170032ffb;"><path d="M81.12-53.60L92.48-55.60L91.60-29.52L112-55.44L120.16-50L101.76-28.64L121.28-5.52L111.04 0.88L91.52-26.72L91.36-20.80L92.32 0L81.12 0L82.08-19.44L81.12-53.60" fill="#a0e9f9" stroke="none" stroke-width="none" transform="translate(-71.32001399993896,21.29520179748535)" style="fill: rgb(160, 233, 249);"></path></g><g class="path" style="transform: scale(0.91); transform-origin: 65.56px 0.935202px; animation: 2.22222s linear 0s infinite normal forwards running breath-5c40a81f-2b15-4c0b-816b-71f170032ffb;"><path d="M124.72-38.64L124.72-38.64L134.40-40.72L134.40-40.72Q135.12-34.56 135.36-29.04L135.36-29.04L135.36-29.04Q142.64-40.32 149.04-40.32L149.04-40.32L148.16-27.84L148.16-27.84Q143.52-27.84 140.84-27L140.84-27L140.84-27Q138.16-26.16 135.36-23.68L135.36-23.68L135.36-20.80L136.24-2L125.52 0L126.48-19.44L126.48-19.44Q126.16-30.16 124.72-38.64" fill="#a0e9f9" stroke="none" stroke-width="none" transform="translate(-71.32001399993896,21.29520179748535)" style="fill: rgb(43, 46, 59);"></path></g></g>
</g>
</g>
<style id="breath-5c40a81f-2b15-4c0b-816b-71f170032ffb" data-anikit="">@keyframes breath-5c40a81f-2b15-4c0b-816b-71f170032ffb
{
  0% {
    animation-timing-function: cubic-bezier(0.9647,0.2413,-0.0705,0.7911);
    transform: scale(0.9099999999999999);
  }
  51% {
    animation-timing-function: cubic-bezier(0.9226,0.2631,-0.0308,0.7628);
    transform: scale(1.02994);
  }
  100% {
    transform: scale(0.9099999999999999);
  }
}</style></svg>